# xmcd
#
# Track frame offsets: 
#        150
#        14912
#        27137
#        44755
#        65300
#        88942
#        101600
#        115927
#        147947
#        163217
#        176782
#        194922
#        210760
#        228420
#        243397
#
# Disc length: 3575 seconds
#
# Revision: 2
# Processed by: cddbd v1.5.2PL0 Copyright (c) Steve Scherf et al.
# Submitted via: ExactAudioCopy v0.95b4
#
DISCID=dd0df50f
DTITLE=Piano Connection - Still Got The Boogie
DYEAR=1999
DGENRE=Boogie
TTITLE0=Son' Joice
TTITLE1=230 bpm Boogie
TTITLE2=Anymail.Boogie
TTITLE3=Happy Like A Hammer
TTITLE4=Sergej's Blues
TTITLE5=The Flintstones
TTITLE6=Octavian's Roller
TTITLE7=Roo Bar Blues
TTITLE8=Koline, Koline
TTITLE9=Straight Away Boogie
TTITLE10=Not So Dangerous
TTITLE11=N.Z. Boogie
TTITLE12=Bright Side Of Life
TTITLE13=Eiger Shuffle
TTITLE14=Chill Out Blues
EXTD=
EXTT0=
EXTT1=
EXTT2=
EXTT3=
EXTT4=
EXTT5=
EXTT6=
EXTT7=
EXTT8=
EXTT9=
EXTT10=
EXTT11=
EXTT12=
EXTT13=
EXTT14=
PLAYORDER=
